<?xml version="1.0"?>
<svg xmlns="http://www.w3.org/2000/svg" height="512px" viewBox="0 0 512 512.00048" width="512px"><path d="m454.390625 138.949219c3.398437-1.132813 6.277344-3.441407 8.121094-6.511719l47.347656-83.855469c3.542969-5.902343 2.613281-13.457031-2.253906-18.324219l-25.863281-25.863281c-4.867188-4.867187-12.421876-5.796875-18.324219-2.257812l-83.855469 47.351562c-3.070312 1.84375-5.378906 4.71875-6.511719 8.117188l-19.460937 58.375 42.425781 42.429687zm0 0" fill="#cf381d"/><path d="m285.242188 331.285156c9.753906-4.183594 12.203124-16.890625 4.699218-24.394531l-21.203125-21.203125 106.066407-106.066406-42.425782-42.425782-106.066406 106.066407-21.203125-21.203125c-7.503906-7.503906-20.210937-5.058594-24.394531 4.695312l-13.066406 42.691406 74.90625 74.90625zm0 0" fill="#cf381d"/><path d="m23.785156 467 149.492188-149.492188-10.605469-10.609374c-17.570313-17.570313-46.0625-17.570313-63.636719 0l-85.855468 85.855468c-17.574219 17.574219-17.574219 46.066406 0 63.640625zm0 0" fill="#cf381d"/><path d="m45 488.210938 10.605469 10.609374c17.574219 17.574219 46.066406 17.574219 63.640625 0l85.851562-85.851562c17.574219-17.574219 17.574219-46.070312 0-63.640625l-10.605468-10.609375zm0 0" fill="#cf381d"/><path d="m392.753906 498.820312c17.574219 17.574219 46.066406 17.574219 63.636719 0l10.609375-10.605468-149.492188-149.496094-10.605468 10.609375c-17.574219 17.570313-17.574219 46.066406 0 63.640625zm0 0" fill="#cf381d"/><path d="m498.820312 456.394531c17.574219-17.574219 17.574219-46.066406 0-63.640625l-85.851562-85.855468c-17.574219-17.570313-46.066406-17.570313-63.640625 0l-10.605469 10.609374 149.492188 149.492188zm0 0" fill="#cf381d"/><path d="m226.316406 200.839844 8.472656-8.472656-185.175781-185.179688c-2.390625-2.394531-5.511719-3.894531-8.867187-4.289062l-24.019532-2.804688c-9.113281-1.078125-17.710937 7.519531-16.632812 16.632812l2.804688 24.019532c.394531 3.359375 1.894531 6.472656 4.289062 8.867187l153.515625 153.515625c8.40625-9.613281 20.597656-15.464844 33.847656-15.464844 11.976563 0 23.265625 4.683594 31.765625 13.175782zm0 0" fill="#cf381d"/></svg>
